<?xml version="1.0" encoding="UTF-8"?>
<svg version="1.1" xmlns="http://www.w3.org/2000/svg" width="2816" height="1536">
<path d="M0 0 C929.28 0 1858.56 0 2816 0 C2816 506.88 2816 1013.76 2816 1536 C1886.72 1536 957.44 1536 0 1536 C0 1029.12 0 522.24 0 0 Z " fill="#FEFEFE" transform="translate(0,0)"/>
<path d="M0 0 C1.74179489 -0.00239237 3.48358876 -0.00565917 5.22538057 -0.0097166 C10.01040113 -0.01832594 14.79534312 -0.01451455 19.58036487 -0.00866088 C24.78677492 -0.00448806 29.9931707 -0.01189397 35.19957727 -0.01781338 C44.32428903 -0.0265778 53.44897835 -0.02788663 62.57369328 -0.02431011 C76.14276704 -0.01900562 89.71181906 -0.02509592 103.28089046 -0.03339304 C128.2204194 -0.04822335 153.15993495 -0.05048195 178.09946663 -0.04807267 C181.63242432 -0.04773421 185.16538201 -0.04741211 188.6983397 -0.04710698 C189.40009551 -0.04704594 190.10185131 -0.04698489 190.82487245 -0.046922 C206.38274766 -0.04564964 221.9406215 -0.04825236 237.4984963 -0.05163305 C241.0518771 -0.0524038 244.6052579 -0.05314853 248.1586387 -0.05389806 C249.58478396 -0.05419976 251.01092921 -0.05450164 252.43707447 -0.05480371 C253.14399535 -0.05495338 253.85091622 -0.05510306 254.57925894 -0.05525728 C256.00917791 -0.05556081 257.43909688 -0.05586549 258.86901585 -0.05617132 C299.44124945 -0.06484412 340.01348184 -0.0694885 380.58571625 -0.06522369 C381.33692883 -0.06514564 382.08814141 -0.06506758 382.86211801 -0.06498716 C391.2387551 -0.06411437 399.61539218 -0.06318511 407.99202926 -0.06223653 C409.12643819 -0.06210826 409.12643819 -0.06210826 410.28376448 -0.06197741 C416.56734444 -0.06126666 416.56734444 -0.06126666 419.45903376 -0.06093518 C467.82301273 -0.05540052 516.18697262 -0.06293843 564.55094814 -0.08170605 C576.73545007 -0.08642839 588.91995201 -0.09110895 601.10445404 -0.09554291 C601.85473465 -0.09581623 602.60501525 -0.09608955 603.37803164 -0.09637116 C626.50879539 -0.10474481 649.63955755 -0.10942234 672.7703228 -0.11025047 C673.49672538 -0.11027684 674.22312796 -0.11030321 674.97154274 -0.11033037 C690.91922218 -0.1108712 706.8669015 -0.11049859 722.8145809 -0.10929066 C728.52122625 -0.10886504 734.22787159 -0.10849992 739.93451694 -0.10816122 C741.35414756 -0.10807591 742.77377819 -0.10798698 744.19340881 -0.1078944 C766.79670685 -0.10644673 789.39999191 -0.11356476 812.00328684 -0.12489836 C835.40892845 -0.13655824 858.81454187 -0.13710052 882.22018564 -0.12505493 C895.70937919 -0.11842351 909.19851172 -0.12006395 922.68770039 -0.13364345 C931.70180459 -0.14188585 940.71586307 -0.13919307 949.72996355 -0.12766818 C954.86348434 -0.12140972 959.99688603 -0.11981635 965.13039995 -0.13153151 C969.80942804 -0.142111 974.48823671 -0.13864414 979.16725324 -0.12442699 C980.84080778 -0.12172007 982.51438024 -0.12392675 984.1879178 -0.13193413 C998.65225026 -0.19636449 1013.26768751 1.06922199 1027.0013876 5.94197559 C1028.10281094 6.32325611 1028.10281094 6.32325611 1029.22648525 6.71223927 C1041.73051565 11.21881592 1052.52698383 17.85276198 1062.8138876 26.25447559 C1064.01464931 27.22513966 1064.01464931 27.22513966 1065.23966885 28.21541309 C1084.83913595 44.80218145 1098.59851514 70.76070854 1101.8138876 96.25447559 C1102.09833222 102.03296875 1102.08650781 107.80244286 1102.0711565 113.58673096 C1102.07385258 115.34448008 1102.07742193 117.10222804 1102.08178097 118.85997382 C1102.09122005 123.68927601 1102.08824445 128.51850259 1102.08322543 133.34780846 C1102.07995539 138.60219406 1102.08824417 143.85656362 1102.09504378 149.11094409 C1102.10534827 158.31982683 1102.10818679 167.52868855 1102.10613155 176.73757648 C1102.10308276 190.43170699 1102.11140284 204.12581421 1102.12188081 217.81994019 C1102.14122951 243.70023094 1102.14685059 269.58051002 1102.14799492 295.46080651 C1102.14812442 298.31458856 1102.1482603 301.16837061 1102.14840174 304.02215266 C1102.14843575 304.73034079 1102.14846976 305.43852893 1102.14850479 306.1681773 C1102.14932202 321.86788116 1102.15370288 337.56758341 1102.15871343 353.26728641 C1102.16077016 359.73370282 1102.16275024 366.20011925 1102.16474593 372.66653568 C1102.16496711 373.38103808 1102.16518828 374.09554048 1102.16541617 374.83169447 C1102.17806275 415.77122646 1102.18631456 456.7107574 1102.18539906 497.65029144 C1102.1853675 499.18209443 1102.18533603 500.71389741 1102.18530464 502.2457004 C1102.18515787 509.1615292 1102.18498153 516.077358 1102.18479687 522.99318679 C1102.18471462 526.07707584 1102.18463433 529.16096489 1102.18455424 532.24485394 C1102.18451345 533.78839509 1102.18447141 535.33193625 1102.18442812 536.8754774 C1102.18306767 585.68273072 1102.19770232 634.48995502 1102.22550869 683.2972002 C1102.23251085 695.59444737 1102.23944982 707.89169456 1102.24603748 720.18894196 C1102.24644323 720.94615419 1102.24684898 721.70336643 1102.24726702 722.48352449 C1102.25969899 745.82537382 1102.26722852 769.16722076 1102.26975346 792.50907326 C1102.26987331 793.60850284 1102.26987331 793.60850284 1102.26999558 794.73014311 C1102.27170222 810.82104328 1102.2722245 826.9119433 1102.27165483 843.00284354 C1102.27146186 848.76060172 1102.27135777 854.5183599 1102.27129737 860.27611808 C1102.27128154 861.7084741 1102.27126113 863.14083012 1102.27123612 864.57318614 C1102.27088365 887.3849289 1102.2822723 910.19664679 1102.29954376 933.00838243 C1102.317335 956.62670436 1102.32048154 980.2449761 1102.3069195 1003.86330452 C1102.29952371 1017.47735674 1102.30320719 1031.09130006 1102.32280418 1044.70534076 C1102.33479032 1053.80011843 1102.33222826 1062.8948171 1102.31786318 1071.98959113 C1102.31008878 1077.17085629 1102.30858144 1082.35191048 1102.32477789 1087.53316089 C1102.33940325 1092.25319685 1102.33538403 1096.97284741 1102.31693015 1101.6928666 C1102.31350709 1103.38348862 1102.31667993 1105.07414132 1102.32753257 1106.76473198 C1102.50901828 1137.08347347 1090.17021485 1163.6988631 1069.2513876 1185.25447559 C1053.99477247 1200.48852176 1033.79877432 1210.83875582 1012.39536095 1213.91838038 C1011.52735355 1214.04478505 1010.65934616 1214.17118972 1009.76503551 1214.30142484 C1000.99775514 1215.49384754 992.34437409 1215.67283536 983.51031399 1215.63199902 C981.75692807 1215.63513875 980.00354411 1215.6395901 978.25016439 1215.64521211 C973.47487303 1215.65678512 968.69976611 1215.64996266 963.9244781 1215.63987826 C958.71297553 1215.63221716 953.50149963 1215.64206796 948.29000092 1215.64960825 C939.17024155 1215.66041033 930.05053552 1215.66013498 920.93077374 1215.65246677 C907.36910997 1215.64109479 893.80749101 1215.64693328 880.24582753 1215.6560917 C857.42425681 1215.67095858 834.60271376 1215.67153466 811.78114223 1215.66336155 C810.74028685 1215.66298897 810.74028685 1215.66298897 809.67840407 1215.66260886 C808.98337916 1215.66236007 808.28835425 1215.66211129 807.57226798 1215.66185496 C786.3727862 1215.65427658 765.17331307 1215.65233533 743.97383022 1215.65592289 C742.55259413 1215.65615533 741.13135803 1215.6563868 739.71012194 1215.6566173 C733.99834068 1215.65754875 728.28655942 1215.65850476 722.57477817 1215.65949659 C706.60934081 1215.66224722 690.64390342 1215.66395931 674.67846584 1215.664855 C673.95152038 1215.66489594 673.22457491 1215.66493688 672.47560079 1215.66497906 C649.32218234 1215.66620635 626.1687669 1215.662829 603.01534939 1215.65630627 C602.2647147 1215.65609552 601.51408002 1215.65588477 600.74069883 1215.65566764 C588.55193034 1215.65223306 576.36316191 1215.64857455 564.17439349 1215.64489712 C515.83644308 1215.63032882 467.49851759 1215.63100501 419.16056728 1215.64558887 C406.97785348 1215.64925264 394.79513968 1215.65288587 382.6124258 1215.65630627 C381.8622271 1215.65651761 381.11202839 1215.65672896 380.33909638 1215.6569467 C357.20916697 1215.6634181 334.07923964 1215.66615755 310.94930935 1215.664855 C309.8596983 1215.66479387 309.8596983 1215.66479387 308.7480749 1215.66473151 C292.80018608 1215.66379395 276.85229748 1215.6618928 260.90440888 1215.65912349 C255.19782425 1215.65813613 249.49123962 1215.65719688 243.78465498 1215.65627136 C242.36508801 1215.6560392 240.94552104 1215.655803 239.52595406 1215.65556277 C218.33375609 1215.65198629 197.14156787 1215.65502298 175.94937112 1215.66260886 C175.25546753 1215.66285725 174.56156393 1215.66310564 173.84663296 1215.66336155 C172.80770927 1215.66373362 172.80770927 1215.66373362 171.74779723 1215.66411321 C148.35612217 1215.67239888 124.96447731 1215.6693161 101.57280374 1215.65351932 C88.09509519 1215.64471747 74.6174461 1215.64412533 61.13973911 1215.65545784 C52.13105395 1215.66219633 43.12241635 1215.65797781 34.11373822 1215.64494353 C28.98511404 1215.63782452 23.85660778 1215.63533092 18.72798741 1215.64616148 C14.05116906 1215.65593686 9.37457195 1215.65161515 4.69776936 1215.6366195 C3.02728019 1215.6336282 1.35677218 1215.63551538 -0.31370182 1215.64323732 C-9.25622649 1215.68160134 -17.94203463 1215.20171047 -26.79883575 1213.90666163 C-27.61094856 1213.78884274 -28.42306137 1213.67102386 -29.25978366 1213.5496347 C-37.37162983 1212.25460189 -44.69771961 1209.56008933 -52.1861124 1206.25447559 C-53.23025303 1205.80201466 -54.27439365 1205.34955372 -55.3501749 1204.88338184 C-81.52226021 1192.69506243 -100.41223742 1170.13622064 -110.69001865 1143.46541309 C-115.94124974 1128.57386225 -117.63597141 1114.18749316 -117.56084251 1098.52283096 C-117.56367513 1096.78282669 -117.56782173 1095.04282415 -117.57314774 1093.30282572 C-117.58393824 1088.54607202 -117.5762121 1083.789506 -117.56531371 1079.0327593 C-117.55676791 1073.84838339 -117.56570808 1068.66403185 -117.57237786 1063.47965723 C-117.58165815 1054.40146774 -117.57982782 1045.32333366 -117.57064533 1036.24514484 C-117.55702819 1022.74550264 -117.56061665 1009.24590289 -117.56760394 995.74625759 C-117.57883453 973.03182797 -117.5758796 950.31742643 -117.5644331 927.60299969 C-117.55311311 905.10610622 -117.5471463 882.60922306 -117.54862118 860.11232662 C-117.54870658 858.69848194 -117.54879146 857.28463726 -117.54887582 855.87079257 C-117.54922367 850.18891154 -117.54960876 844.50703051 -117.55004139 838.82514948 C-117.55123592 822.94279666 -117.55141794 807.06044391 -117.55083847 791.17809105 C-117.55081244 790.45489622 -117.55078642 789.7317014 -117.5507596 788.98659158 C-117.54986117 765.94849634 -117.54456497 742.91040431 -117.53613091 719.87231064 C-117.53585772 719.12528016 -117.53558453 718.37824969 -117.53530306 717.60858192 C-117.53084957 705.47786782 -117.52613471 693.34715381 -117.52140417 681.21643981 C-117.50265876 633.10435842 -117.49624054 584.99229273 -117.50178623 536.88020802 C-117.50213322 533.83964751 -117.50247883 530.799087 -117.50282452 527.7585265 C-117.50291013 527.0067535 -117.50299573 526.2549805 -117.50308393 525.48042651 C-117.50403008 517.15451667 -117.5049418 508.82860683 -117.50581169 500.50269699 C-117.50589061 499.75603276 -117.50596953 499.00936853 -117.50605084 498.24007811 C-117.51027451 457.91886063 -117.5049667 417.5976449 -117.4963004 377.27642828 C-117.49599712 375.85468577 -117.49569422 374.43294327 -117.4953917 373.01120076 C-117.49524211 372.30840159 -117.49509252 371.60560241 -117.49493839 370.88150629 C-117.49463697 369.46364641 -117.49433599 368.04578653 -117.49403543 366.62792665 C-117.49328658 363.09572278 -117.49253059 359.56351892 -117.49175926 356.03131506 C-117.4884122 340.5544501 -117.48634104 325.07758644 -117.48769498 309.60072112 C-117.48775552 308.90373161 -117.48781606 308.20674209 -117.48787843 307.48863168 C-117.48819039 303.97956827 -117.48852382 300.47050486 -117.48886475 296.96144146 C-117.49131684 271.58793962 -117.48723771 246.21445522 -117.47165475 220.84095638 C-117.46360369 207.42221751 -117.4610036 194.00350414 -117.46629711 180.58476374 C-117.46927384 171.6216269 -117.46497305 162.65851258 -117.45474853 153.69538112 C-117.44912211 148.58861878 -117.44661667 143.48190841 -117.45291511 138.37514567 C-117.45858244 133.72398899 -117.45496091 129.07293303 -117.44411634 124.42178639 C-117.44182037 122.75495489 -117.44282025 121.0881145 -117.44763888 119.42128839 C-117.5087193 96.55694792 -113.42757806 76.32612927 -102.1861124 56.25447559 C-101.37013584 54.79267872 -101.37013584 54.79267872 -100.5376749 53.30135059 C-85.70758212 28.56041531 -61.7860605 10.76342981 -33.9361124 3.50447559 C-32.02727529 3.05329591 -30.10872441 2.64278639 -28.1861124 2.25447559 C-27.48921703 2.09240777 -26.79232166 1.93033994 -26.07430825 1.76336097 C-17.39429496 -0.07822129 -8.82093807 -0.02520836 0 0 Z " fill="#19315E" transform="translate(915.1861124038696,168.7455244064331)"/>
<path d="M0 0 C31.80375 -0.0928125 31.80375 -0.0928125 64.25 -0.1875 C70.90704102 -0.21481201 77.56408203 -0.24212402 84.42285156 -0.27026367 C92.64794922 -0.28381348 92.64794922 -0.28381348 96.51702881 -0.28633118 C99.17882964 -0.29089229 101.84017959 -0.30018037 104.50189209 -0.31672668 C124.38013887 -0.4348329 143.32951018 0.51525184 162.625 5.6875 C163.57810059 5.94096191 164.53120117 6.19442383 165.51318359 6.45556641 C184.00985671 11.60399755 200.37985479 20.56673365 215 33 C215.73605469 33.59039063 216.47210937 34.18078125 217.23046875 34.7890625 C240.20488354 53.90052259 252.724542 83.90321188 256 113 C256.28796175 118.18875761 256.3421292 123.36717856 256.3125 128.5625 C256.31001251 129.26243073 256.30752502 129.96236145 256.30496216 130.6835022 C256.10990141 166.30868864 245.24689477 197.52439609 220.1875 223.25 C201.15592703 242.06193031 175.18169781 253.52180031 149 258 C148.0519902 258.16867081 147.10398041 258.33734161 146.12724304 258.51112366 C132.2986521 260.59825222 118.37638029 260.25899779 104.42883301 260.20256042 C101.10913518 260.19102087 97.78944201 260.19062617 94.46972656 260.18920898 C84.81313295 260.17878739 75.1565646 260.15086498 65.5 260.125 C43.885 260.08375 22.27 260.0425 0 260 C0 174.2 0 88.4 0 0 Z " fill="#FCFDFD" transform="translate(1375,648)"/>
<path d="M0 0 C15.51 0 31.02 0 47 0 C47 32.34 47 64.68 47 98 C47.66 98 48.32 98 49 98 C49 97.34 49 96.68 49 96 C70.03172882 75.67208887 94.39936664 72.37722995 122.22813416 72.83166504 C146.78835673 73.37329108 169.02059884 84.54548444 186 102 C205.95007538 123.68756251 213.267733 152.08610332 212.375 181.07421875 C210.97752153 207.88396974 200.58187073 233.31844517 181 252 C162.14968763 268.86606896 138.7211787 276.43586265 113.6875 276.3125 C112.50269043 276.30758545 111.31788086 276.3026709 110.09716797 276.29760742 C86.41331851 275.98106523 66.55480053 267.88364832 49.421875 251.57421875 C47 249 47 249 47 247 C46.34 247 45.68 247 45 247 C45 255.58 45 264.16 45 273 C30.15 273 15.3 273 0 273 C0 182.91 0 92.82 0 0 Z " fill="#FCFDFD" transform="translate(1677,635)"/>
<path d="M0 0 C107.21746088 0 107.21746088 0 134.625 26.25 C139.66489893 31.39548341 143.49906048 36.72403755 147 43 C147.46019531 43.78761719 147.92039062 44.57523438 148.39453125 45.38671875 C152.30318046 52.53092651 154.16620727 60.13243766 156 68 C156.22816406 68.88042969 156.45632813 69.76085937 156.69140625 70.66796875 C162.12269489 94.55804255 156.67877998 120.45830635 144.03125 141.09375 C132.43800586 157.681007 116.7043423 167.94254961 97.4375 173.75 C96.77790283 173.94883789 96.11830566 174.14767578 95.4387207 174.35253906 C64.80818551 183.04977613 30.19321939 178 0 178 C0 119.26 0 60.52 0 0 Z " fill="#19315E" transform="translate(1424,689)"/>
<path d="M0 0 C15.84 0 31.68 0 48 0 C48 15.51 48 31.02 48 47 C66.15 47 84.3 47 103 47 C103 59.54 103 72.08 103 85 C84.85 85 66.7 85 48 85 C48.09084417 102.90930019 48.09084417 102.90930019 48.20898438 120.81835938 C48.26324609 128.12620078 48.31435885 135.43396651 48.34643555 142.74194336 C48.37250682 148.63594674 48.41293682 154.52969502 48.46318626 160.42354012 C48.47982903 162.66847617 48.49135939 164.91345633 48.49761391 167.15844536 C48.50728297 170.31089693 48.53537666 173.46269964 48.56762695 176.61499023 C48.56619186 177.53640808 48.56475677 178.45782593 48.5632782 179.40716553 C48.67296729 187.02368562 49.94373478 194.88752086 55.3828125 200.6484375 C62.17459882 206.32466472 68.73046271 207.70130798 77.46875 207.359375 C84.61835712 206.63176012 91.1802961 205.09804139 97.5625 201.75 C98.696875 201.1725 99.83125 200.595 101 200 C101.99 200.33 102.98 200.66 104 201 C105.3503418 203.80395508 105.3503418 203.80395508 106.69921875 207.51953125 C107.05908623 208.50200081 107.05908623 208.50200081 107.42622375 209.50431824 C107.93168501 210.89190971 108.43147416 212.28157846 108.92602539 213.6730957 C109.68246492 215.79835366 110.45779331 217.91595318 111.23632812 220.03320312 C115 230.42242455 115 230.42242455 115 235 C94.16341174 246.27329091 69.73309996 251.37986981 46.25 245.4375 C30.33979989 240.64769239 17.76490264 232.57016418 8.75390625 218.31640625 C5.66033309 212.46686591 3.72132942 206.38493122 2 200 C1.82578081 199.35458283 1.65156162 198.70916567 1.47206306 198.04419041 C-0.01009268 192.05188892 -0.27320531 186.40225641 -0.22705078 180.24780273 C-0.22734283 179.21261002 -0.22763489 178.1774173 -0.22793579 177.1108551 C-0.22655198 173.71834683 -0.21103558 170.32606325 -0.1953125 166.93359375 C-0.191579 164.56991191 -0.18873362 162.20622851 -0.18673706 159.84254456 C-0.17912718 153.64313429 -0.15950147 147.44381881 -0.1373291 141.2444458 C-0.11681359 134.9097217 -0.10772316 128.57498217 -0.09765625 122.24023438 C-0.07625302 109.82677473 -0.04109249 97.4134101 0 85 C-11.22 85 -22.44 85 -34 85 C-34 72.46 -34 59.92 -34 47 C-22.78 47 -11.56 47 0 47 C0 31.49 0 15.98 0 0 Z " fill="#FAFBFB" transform="translate(1109,664)"/>
<path d="M0 0 C0 14.52 0 29.04 0 44 C-14.8125 44.75 -14.8125 44.75 -19.41333008 44.95605469 C-34.16747531 45.80946465 -45.70412451 50.20495659 -56.1875 61 C-58.95200372 64.54402948 -61.08203114 68.47809002 -63.1875 72.4375 C-63.52096436 73.03884766 -63.85442871 73.64019531 -64.19799805 74.25976562 C-71.40090255 88.54591903 -70.46813391 105.55670357 -70.51171875 121.09375 C-70.52859939 123.38017723 -70.54675407 125.66659537 -70.56611633 127.95300293 C-70.61325501 133.91714638 -70.64329681 139.88125298 -70.66955566 145.84552002 C-70.704835 153.03038425 -70.76174312 160.21510702 -70.81494904 167.39985657 C-70.89303825 178.26655205 -70.94396497 189.13306778 -71 200 C-86.84 200 -102.68 200 -119 200 C-119 134.66 -119 69.32 -119 2 C-103.82 2 -88.64 2 -73 2 C-72.67 11.24 -72.34 20.48 -72 30 C-69.36 26.7 -66.72 23.4 -64 20 C-45.40661369 2.77743976 -24.53855253 0 0 0 Z " fill="#FBFCFC" transform="translate(1048,708)"/>
<path d="M0 0 C12.00208198 9.52621045 19.16023748 24.69875279 21.86328125 39.515625 C22.12616204 42.60540705 22.15077625 45.66614323 22.11328125 48.765625 C22.09986694 50.02113159 22.09986694 50.02113159 22.08618164 51.30200195 C21.75253188 69.21709225 16.3500819 84.58257752 3.84375 97.62109375 C-7.92727338 108.92551801 -22.52309823 113.03882927 -38.49145508 112.86499023 C-53.57856847 112.39525953 -66.82417313 106.63914174 -77.78515625 96.16015625 C-84.91738748 88.139358 -90.27414911 78.89046305 -93.13671875 68.515625 C-93.35972656 67.731875 -93.58273437 66.948125 -93.8125 66.140625 C-98.13989101 48.2423003 -94.43879325 29.93418465 -85.26464844 14.29150391 C-77.19335636 1.58358647 -63.9200122 -7.40098085 -49.37109375 -10.9765625 C-31.61218872 -13.76479638 -14.84674875 -10.31401193 0 0 Z " fill="#1A315E" transform="translate(1819.13671875,758.484375)"/>
<path d="M0 0 C15.84 0 31.68 0 48 0 C48 65.34 48 130.68 48 198 C32.16 198 16.32 198 0 198 C0 132.66 0 67.32 0 0 Z " fill="#FBFCFD" transform="translate(1263,710)"/>
<path d="M0 0 C6.02718745 4.10167766 10.50461732 9.84588321 12.81640625 16.78125 C13.60937061 26.04983344 13.03694512 34.22509756 7.2734375 41.8125 C1.94215449 47.57077364 -5.00419103 51.55368043 -12.9140625 51.984375 C-25.49103381 52.21201889 -32.5623715 51.24205224 -41.97265625 42.22265625 C-47.97027661 35.59984225 -48.91954034 29.03595752 -48.625 20.21875 C-47.58952559 12.15487846 -43.73518608 6.25165309 -37.40234375 1.25390625 C-26.11458342 -6.23814594 -11.87138146 -6.62588733 0 0 Z " fill="#FBFCFC" transform="translate(1304.18359375,628.21875)"/>
<path d="M0 0 C25.08 0.33 50.16 0.66 76 1 C76 1.66 76 2.32 76 3 C50.59 3 25.18 3 -1 3 C-0.67 2.01 -0.34 1.02 0 0 Z " fill="#394964" transform="translate(1425,864)"/>
<path d="M0 0 C0.99 0.33 1.98 0.66 3 1 C-2.94 6.94 -8.88 12.88 -15 19 C-15.66 18.67 -16.32 18.34 -17 18 C-5.58297707 3.38515352 -5.58297707 3.38515352 0 0 Z " fill="#1E3257" transform="translate(838,195)"/>
<path d="M0 0 C0.66 0.33 1.32 0.66 2 1 C1.113125 1.70125 0.22625 2.4025 -0.6875 3.125 C-3.90375955 5.79121041 -6.41236896 8.72740781 -9 12 C-9 8.47601214 -8.44884893 7.98495633 -6.1875 5.4375 C-5.40439453 4.53837891 -5.40439453 4.53837891 -4.60546875 3.62109375 C-3 2 -3 2 0 0 Z " fill="#DAE3ED" transform="translate(1269,628)"/>
<path d="M0 0 C0.99 0.33 1.98 0.66 3 1 C0.69 3.31 -1.62 5.62 -4 8 C-4.99 7.67 -5.98 7.34 -7 7 C-4.69 4.69 -2.38 2.38 0 0 Z " fill="#2B3D5F" transform="translate(1744,761)"/>
<path d="M0 0 C-1.49097658 3.7952131 -3.75700849 5.61042731 -7 8 C-7 5 -7 5 -4.625 2.3125 C-2 0 -2 0 0 0 Z " fill="#2D3F60" transform="translate(999,763)"/>
<path d="M0 0 C0.66 0.33 1.32 0.66 2 1 C1.04882866 2.1725131 0.08882991 3.33787015 -0.875 4.5 C-1.40867187 5.1496875 -1.94234375 5.799375 -2.4921875 6.46875 C-2.98976563 6.9740625 -3.48734375 7.479375 -4 8 C-4.66 8 -5.32 8 -6 8 C-4.55746343 4.63408134 -2.66735273 2.48952921 0 0 Z " fill="#354665" transform="translate(834,198)"/>
</svg>
